# xmcd
#
# Track frame offsets: 
#        150
#        12922
#        26515
#        40882
#        55237
#        69550
#        83400
#        98240
#        112622
#        125805
#        139300
#        152135
#        166360
#        179327
#        192290
#        206767
#        219790
#        234612
#        248147
#        263315
#        276702
#        290587
#        303317
#        316427
#        329870
#
# Disc length: 4575 seconds
#
# Revision: 0
# Processed by: cddbd v1.5.2PL0 Copyright (c) Steve Scherf et al.
# Submitted via: ExactAudioCopyFreeDBPlugin 1.0
#
DISCID=6e11dd19
DTITLE=Various Artist - Atlanta, Ga. Gospel (1923-1931)
DYEAR=1996
DGENRE=Gospel
TTITLE0=Morehouse College Quartet - Swing Low, Sweet Chariot
TTITLE1=Morehouse College Quartet - Down by the Riverside
TTITLE2=Rev. C. D. Montgomery - Who Was Job? Part 1
TTITLE3=Rev. C. D. Montgomery - Who Was Job? Part 2
TTITLE4=The Thankful Quartette - Let the Church Roll On
TTITLE5=The Thankful Quartette - Goin' to Shout All Over God's Heaven
TTITLE6=The Thankful Quartette - I'm Troubled Lord I'm Troubled
TTITLE7=The Thankful Quartette - He Took My Sins Away
TTITLE8=Deacon W. H. Gallamore - Hell Is God's Chain Gang
TTITLE9=Deacon W. H. Gallamore - Hide Me Over in the Rock of Ages
TTITLE10=Deacon W. H. Gallamore - In My Dying Room
TTITLE11=Deacon W. H. Gallamore - Just Had to Tell It
TTITLE12=Independent Quartet - Let the Church Roll On
TTITLE13=Independent Quartet - In the Bible There's a Story
TTITLE14=Progressive Four - Ding Dong Bells
TTITLE15=Progressive Four - New Name
TTITLE16=Progressive Four - Beautiful Land
TTITLE17=Middle Georgia Singing Convention No. 1 - We'll Reap What We 
TTITLE17=Sow
TTITLE18=Middle Georgia Singing Convention No. 1 - I Walk with Jesus
TTITLE19=Middle Georgia Singing Convention No. 1 - This Song of Love
TTITLE20=Middle Georgia Singing Convention No. 1 - I Am Going Home
TTITLE21=Middle Georgia Singing Convention No. 1 - Bells of Love
TTITLE22=Middle Georgia Singing Convention No. 1 - Walking with My Kin
TTITLE22=g
TTITLE23=James Brothers Quartet - I'm in My Saviour's Care
TTITLE24=James Brothers Quartet - Ain't It a Shame?
EXTD=
EXTT0=
EXTT1=
EXTT2=
EXTT3=
EXTT4=
EXTT5=
EXTT6=
EXTT7=
EXTT8=
EXTT9=
EXTT10=
EXTT11=
EXTT12=
EXTT13=
EXTT14=
EXTT15=
EXTT16=
EXTT17=
EXTT18=
EXTT19=
EXTT20=
EXTT21=
EXTT22=
EXTT23=
EXTT24=
PLAYORDER=
